# xmcd
#
# Track frame offsets:
#	150
#	21568
#	38601
#	59916
#	76381
#	92875
#	106539
#	123990
#	140827
#	156893
#	169100
#	187274
#
# Disc length: 2744 seconds
#
# Revision: 1
# Processed by: cddbd v1.5.2PL0 Copyright (c) Steve Scherf et al.
# Submitted via: audiograbber 1.83.01
#
DISCID=a80ab60c
DTITLE=Joshua Creek - Sunday Afternoons at
DYEAR=1900
DGENRE=
TTITLE0=If I Were In That Place
TTITLE1=What A Friend We Have In Jesus
TTITLE2=Lift Me Up
TTITLE3=Will I Let Him In?
TTITLE4=He Came Here For You
TTITLE5=Brightly Veams Our Father's Mercy
TTITLE6=If You Fall
TTITLE7=Amazing Grace
TTITLE8=All at Once
TTITLE9=Give a LIttle
TTITLE10=Let the River Take You Home
TTITLE11=A Poor Wayfaring Man of Grief
EXTD=
EXTT0=
EXTT1=
EXTT2=
EXTT3=
EXTT4=
EXTT5=
EXTT6=
EXTT7=
EXTT8=
EXTT9=
EXTT10=
EXTT11=
PLAYORDER=
